<?xml version="1.0" encoding="UTF-8"?>
<svg xmlns="http://www.w3.org/2000/svg" xmlns:xlink="http://www.w3.org/1999/xlink" width="125pt" height="180pt" viewBox="0 0 125 180" version="1.1">
<defs>
<linearGradient id="linear0" gradientUnits="userSpaceOnUse" x1="-30.4843" y1="39.3849" x2="-30.4843" y2="372.56" gradientTransform="matrix(0.625,0,0,0.622837,0,0)">
<stop offset="0" style="stop-color:rgb(2.352941%,54.117647%,86.666667%);stop-opacity:1;"/>
<stop offset="1" style="stop-color:rgb(0.784314%,53.333333%,90.196078%);stop-opacity:1;"/>
</linearGradient>
</defs>
<g id="surface1">
<path style=" stroke:none;fill-rule:evenodd;fill:url(#linear0);" d="M 0 73.335938 C 0.230469 73.832031 0.523438 74.300781 0.878906 74.730469 C 2.371094 76.757812 4.734375 78.132812 7.273438 78.300781 C 9.832031 78.558594 12.386719 77.453125 14.164062 75.644531 C 15.320312 74.449219 16.503906 73.273438 17.683594 72.101562 C 18.949219 70.847656 20.210938 69.597656 21.441406 68.3125 C 22.714844 67.078125 24.171875 65.933594 25.9375 65.523438 C 30.023438 64.304688 34.585938 66.820312 36.15625 70.667969 C 36.921875 73.03125 36.84375 75.71875 35.640625 77.929688 C 34.820312 79.339844 33.644531 80.460938 32.46875 81.582031 C 31.976562 82.050781 31.484375 82.519531 31.015625 83.007812 C 27.714844 86.292969 24.417969 89.585938 21.101562 92.863281 C 19.464844 94.382812 17.738281 96.070312 17.296875 98.351562 C 16.078125 102.648438 18.964844 107.507812 23.296875 108.605469 C 26.273438 109.441406 29.679688 108.628906 31.828125 106.375 C 37.097656 101.121094 42.367188 95.875 47.644531 90.632812 C 48.019531 90.269531 48.386719 89.890625 48.75 89.515625 C 49.671875 88.566406 50.589844 87.617188 51.691406 86.875 C 54.179688 85.085938 57.632812 84.976562 60.328125 86.351562 C 60.972656 86.738281 61.550781 87.21875 62.128906 87.699219 C 63.035156 88.453125 63.9375 89.203125 65.078125 89.59375 C 68.019531 90.90625 71.699219 90.472656 74.144531 88.339844 C 84.199219 78.320312 94.265625 68.316406 104.328125 58.300781 C 104.535156 58.101562 104.742188 57.902344 104.949219 57.703125 L 104.953125 57.699219 L 104.953125 57.695312 C 106.175781 56.519531 107.421875 55.320312 108.15625 53.78125 C 108.988281 51.589844 108.898438 49.085938 108.039062 46.921875 C 106.808594 44.542969 104.566406 42.589844 101.890625 42.0625 C 99.886719 41.574219 97.761719 41.960938 95.949219 42.894531 C 94.574219 43.734375 93.464844 44.882812 92.355469 46.03125 C 91.910156 46.492188 91.46875 46.953125 91.007812 47.390625 C 90.535156 47.855469 90.066406 48.320312 89.597656 48.789062 C 88.75 49.628906 87.898438 50.476562 87.050781 51.320312 L 85.539062 52.828125 C 84.105469 54.261719 82.667969 55.691406 81.230469 57.121094 C 80.390625 57.953125 79.554688 58.78125 78.710938 59.609375 C 76.070312 62.265625 71.648438 62.886719 68.40625 60.992188 C 66.332031 59.921875 64.878906 57.863281 64.335938 55.625 C 63.734375 53.496094 64.324219 51.234375 65.269531 49.296875 C 66.09375 47.875 67.28125 46.75 68.46875 45.628906 C 69.035156 45.09375 69.601562 44.558594 70.128906 43.988281 C 72.210938 41.921875 74.296875 39.847656 76.375 37.777344 C 78.332031 35.832031 80.285156 33.886719 82.238281 31.941406 C 88.109375 26.097656 93.980469 20.253906 99.859375 14.421875 C 101.699219 12.640625 102.492188 10 102.242188 7.496094 C 101.890625 5.136719 100.617188 2.878906 98.609375 1.535156 C 95.390625 -0.753906 90.558594 -0.476562 87.730469 2.324219 C 86.171875 3.832031 84.644531 5.367188 83.117188 6.902344 L 83.089844 6.929688 L 82.417969 7.605469 C 81.660156 8.363281 80.90625 9.121094 80.144531 9.875 C 78.402344 11.613281 75.578125 11.933594 73.371094 10.941406 C 72.03125 10.484375 71.050781 9.511719 70.070312 8.539062 C 69.082031 7.566406 68.097656 6.589844 66.757812 6.136719 C 64.609375 5.460938 62.195312 5.414062 60.105469 6.304688 C 58.625 7.097656 57.453125 8.308594 56.292969 9.503906 L 56.292969 9.507812 L 56.289062 9.511719 C 56.125 9.679688 55.960938 9.847656 55.796875 10.015625 C 48.652344 17.125 41.503906 24.234375 34.359375 31.347656 L 33.285156 32.414062 L 26.035156 39.625 L 13.6875 51.914062 C 10.265625 55.316406 6.84375 58.71875 3.421875 62.125 C 3.347656 62.195312 3.269531 62.269531 3.195312 62.339844 L 2.902344 62.625 C 1.820312 63.664062 0.683594 64.757812 0 66.082031 Z M 0 43.265625 C 4.632812 38.65625 9.269531 34.050781 13.90625 29.449219 C 16.035156 27.332031 16.847656 24.066406 16.054688 21.191406 C 15.460938 19.011719 13.921875 17.132812 11.976562 15.988281 C 8.871094 14.203125 4.539062 14.585938 1.953125 17.144531 C 1.300781 17.792969 0.652344 18.4375 0 19.085938 Z M 110.742188 127.542969 C 112.933594 128.136719 114.824219 129.667969 115.976562 131.601562 C 117.765625 134.695312 117.382812 139.003906 114.8125 141.574219 C 101.929688 154.378906 89.050781 167.1875 76.175781 180 L 51.886719 180 C 57.117188 174.796875 62.347656 169.597656 67.574219 164.394531 L 67.890625 164.078125 L 68.214844 163.757812 L 68.386719 163.585938 C 79.746094 152.289062 91.101562 140.992188 102.445312 129.683594 C 104.570312 127.566406 107.855469 126.757812 110.742188 127.542969 Z M 102.644531 180 L 112.671875 180 C 112.425781 179.8125 112.171875 179.640625 111.914062 179.476562 C 109.722656 178.199219 106.933594 178.105469 104.542969 178.871094 C 103.847656 179.148438 103.226562 179.542969 102.644531 180 Z M 28.136719 180 L 3.308594 180 C 13.164062 170.199219 23.015625 160.394531 32.855469 150.582031 C 34.984375 148.46875 38.265625 147.65625 41.152344 148.445312 C 43.53125 149.078125 45.507812 150.824219 46.660156 152.957031 C 47.761719 155.316406 47.75 158.140625 46.664062 160.5 C 45.902344 161.890625 44.761719 162.980469 43.621094 164.066406 C 43.207031 164.464844 42.792969 164.859375 42.398438 165.269531 C 40.558594 167.113281 38.710938 168.945312 36.863281 170.777344 L 36.785156 170.855469 C 34.332031 173.289062 31.878906 175.722656 29.449219 178.175781 C 28.921875 178.722656 28.484375 179.339844 28.136719 180 Z M 124.730469 77.578125 C 124.21875 75.269531 122.597656 73.332031 120.617188 72.089844 C 118.425781 70.8125 115.636719 70.722656 113.246094 71.484375 C 111.632812 72.136719 110.402344 73.402344 109.203125 74.632812 C 109.039062 74.804688 108.871094 74.976562 108.703125 75.148438 C 100.738281 83.082031 92.765625 91.011719 84.796875 98.9375 C 74.523438 109.160156 64.246094 119.378906 53.988281 129.609375 C 51.789062 131.753906 51.53125 135.117188 52.355469 137.925781 C 53.804688 142.085938 58.777344 144.757812 63.03125 143.324219 C 65.175781 142.789062 66.730469 141.164062 68.214844 139.617188 L 68.222656 139.609375 L 68.546875 139.269531 L 68.707031 139.105469 C 81.015625 126.871094 93.316406 114.628906 105.617188 102.386719 L 120.613281 87.464844 C 121.847656 86.332031 123.058594 85.148438 123.953125 83.722656 C 124.933594 81.851562 125.296875 79.636719 124.730469 77.578125 Z M 26.867188 126.320312 C 29.246094 127.839844 31.234375 130.308594 31.304688 133.222656 C 31.714844 137.765625 27.867188 142.132812 23.296875 142.351562 C 18.429688 142.847656 13.761719 138.316406 14.121094 133.464844 C 14.21875 129.332031 17.757812 125.621094 21.898438 125.296875 C 23.597656 125.148438 25.40625 125.414062 26.867188 126.320312 Z M 26.867188 126.320312 "/>
</g>
</svg>
